# xmcd CD database file
#
# Track frame offsets:
#	150
#	23678
#	53156
#	82778
#	100085
#	118553
#	156562
#	183749
#	209679
#	239973
#
# Disc length: 3572 seconds
#
# Revision: 0
# Processed by: cddbd v1.5.2PL0 Copyright (c) Steve Scherf et al.
# Submitted via: CDex 1.70beta2
#
DISCID=890df20a
DTITLE=David Laborier - Ye Ole Truckstop
DYEAR=2007
DGENRE=Jazz
TTITLE0=Ye Ole Truckstop
TTITLE1=It's no use
TTITLE2=Introduction to a dream
TTITLE3=End of dreams
TTITLE4=Rif-Raf
TTITLE5=Voices
TTITLE6=Taking Chances
TTITLE7=Space Music
TTITLE8=Purgatory
TTITLE9=Drop that gun
EXTD=YEAR: 2007
EXTT0=
EXTT1=
EXTT2=
EXTT3=
EXTT4=
EXTT5=
EXTT6=
EXTT7=
EXTT8=
EXTT9=
PLAYORDER=
